<mxfile host="65bd71144e" modified="2020-12-24T08:21:38.172Z" agent="5.0 (Windows NT 6.1; Win64; x64) AppleWebKit/537.36 (KHTML, like Gecko) Code/1.51.1 Chrome/83.0.4103.122 Electron/9.3.3 Safari/537.36" etag="f2Wi2a5M4NXZiAsca6PV" version="13.10.0" type="embed">
    <diagram id="zlZiU8RMArKDFve3bkzg" name="Page-1">
        <mxGraphModel dx="1139" dy="789" grid="1" gridSize="10" guides="1" tooltips="1" connect="1" arrows="1" fold="1" page="1" pageScale="1" pageWidth="827" pageHeight="1169" background="#FFFFFF" math="0" shadow="1">
            <root>
                <mxCell id="0"/>
                <mxCell id="1" parent="0"/>
                <mxCell id="9" value="" style="shape=table;html=1;whiteSpace=wrap;startSize=0;container=1;collapsible=0;childLayout=tableLayout;fillColor=#D4D4D4;fontColor=#0F0F0F;strokeColor=#080808;" parent="1" vertex="1">
                    <mxGeometry x="110" y="580" width="550" height="40" as="geometry"/>
                </mxCell>
                <mxCell id="10" value="" style="shape=partialRectangle;html=1;whiteSpace=wrap;collapsible=0;dropTarget=0;pointerEvents=0;fillColor=none;top=0;left=0;bottom=0;right=0;points=[[0,0.5],[1,0.5]];portConstraint=eastwest;fontColor=#0F0F0F;strokeColor=#080808;" parent="9" vertex="1">
                    <mxGeometry width="550" height="40" as="geometry"/>
                </mxCell>
                <mxCell id="11" value="a" style="shape=partialRectangle;html=1;whiteSpace=wrap;connectable=0;overflow=hidden;top=0;left=0;bottom=0;right=0;fontColor=#0F0F0F;strokeColor=#080808;fillColor=#FCFCFC;" parent="10" vertex="1">
                    <mxGeometry width="55" height="40" as="geometry"/>
                </mxCell>
                <mxCell id="12" value="b" style="shape=partialRectangle;html=1;whiteSpace=wrap;connectable=0;overflow=hidden;top=0;left=0;bottom=0;right=0;fontColor=#0F0F0F;strokeColor=#080808;fillColor=#FCFCFC;" parent="10" vertex="1">
                    <mxGeometry x="55" width="55" height="40" as="geometry"/>
                </mxCell>
                <mxCell id="13" value="c" style="shape=partialRectangle;html=1;whiteSpace=wrap;connectable=0;overflow=hidden;top=0;left=0;bottom=0;right=0;fontColor=#0F0F0F;strokeColor=#080808;fillColor=#FCFCFC;" parent="10" vertex="1">
                    <mxGeometry x="110" width="55" height="40" as="geometry"/>
                </mxCell>
                <mxCell id="14" value="d" style="shape=partialRectangle;html=1;whiteSpace=wrap;connectable=0;overflow=hidden;top=0;left=0;bottom=0;right=0;fontColor=#0F0F0F;strokeColor=#080808;fillColor=#D4D4D4;" parent="10" vertex="1">
                    <mxGeometry x="165" width="55" height="40" as="geometry"/>
                </mxCell>
                <mxCell id="15" value="e" style="shape=partialRectangle;html=1;whiteSpace=wrap;connectable=0;overflow=hidden;top=0;left=0;bottom=0;right=0;fontColor=#0F0F0F;strokeColor=#080808;fillColor=#9E9E9E;" parent="10" vertex="1">
                    <mxGeometry x="220" width="55" height="40" as="geometry"/>
                </mxCell>
                <mxCell id="16" value="f" style="shape=partialRectangle;html=1;whiteSpace=wrap;connectable=0;overflow=hidden;top=0;left=0;bottom=0;right=0;fontColor=#0F0F0F;strokeColor=#080808;fillColor=#7A7A7A;" parent="10" vertex="1">
                    <mxGeometry x="275" width="55" height="40" as="geometry"/>
                </mxCell>
                <mxCell id="17" value="g" style="shape=partialRectangle;html=1;whiteSpace=wrap;connectable=0;overflow=hidden;top=0;left=0;bottom=0;right=0;fontColor=#0F0F0F;strokeColor=#080808;fillColor=#7A7A7A;" parent="10" vertex="1">
                    <mxGeometry x="330" width="55" height="40" as="geometry"/>
                </mxCell>
                <mxCell id="18" value="h" style="shape=partialRectangle;html=1;whiteSpace=wrap;connectable=0;overflow=hidden;top=0;left=0;bottom=0;right=0;fontColor=#0F0F0F;strokeColor=#080808;fillColor=#9E9E9E;" parent="10" vertex="1">
                    <mxGeometry x="385" width="55" height="40" as="geometry"/>
                </mxCell>
                <mxCell id="19" value="i" style="shape=partialRectangle;html=1;whiteSpace=wrap;connectable=0;overflow=hidden;fillColor=none;top=0;left=0;bottom=0;right=0;fontColor=#0F0F0F;strokeColor=#080808;" parent="10" vertex="1">
                    <mxGeometry x="440" width="55" height="40" as="geometry"/>
                </mxCell>
                <mxCell id="20" value="j" style="shape=partialRectangle;html=1;whiteSpace=wrap;connectable=0;overflow=hidden;fillColor=none;top=0;left=0;bottom=0;right=0;fontColor=#0F0F0F;strokeColor=#080808;" parent="10" vertex="1">
                    <mxGeometry x="495" width="55" height="40" as="geometry"/>
                </mxCell>
                <mxCell id="32" value="" style="shape=table;html=1;whiteSpace=wrap;startSize=0;container=1;collapsible=0;childLayout=tableLayout;strokeColor=#0D0D0D;fontColor=#0A0A0A;fillColor=#F2F2F2;" parent="1" vertex="1">
                    <mxGeometry x="170" y="470" width="80" height="70" as="geometry"/>
                </mxCell>
                <mxCell id="33" value="" style="shape=partialRectangle;html=1;whiteSpace=wrap;collapsible=0;dropTarget=0;pointerEvents=0;fillColor=none;top=0;left=0;bottom=0;right=0;points=[[0,0.5],[1,0.5]];portConstraint=eastwest;" parent="32" vertex="1">
                    <mxGeometry width="80" height="23" as="geometry"/>
                </mxCell>
                <object label="&lt;font color=&quot;#0d0d0d&quot;&gt;&amp;nbsp; data&lt;/font&gt;" id="34">
                    <mxCell style="shape=partialRectangle;html=1;whiteSpace=wrap;connectable=0;overflow=hidden;fillColor=none;top=0;left=0;bottom=0;right=0;align=left;" parent="33" vertex="1">
                        <mxGeometry width="80" height="23" as="geometry"/>
                    </mxCell>
                </object>
                <mxCell id="35" value="" style="shape=partialRectangle;html=1;whiteSpace=wrap;collapsible=0;dropTarget=0;pointerEvents=0;fillColor=none;top=0;left=0;bottom=0;right=0;points=[[0,0.5],[1,0.5]];portConstraint=eastwest;" parent="32" vertex="1">
                    <mxGeometry y="23" width="80" height="24" as="geometry"/>
                </mxCell>
                <mxCell id="36" value="&lt;font color=&quot;#000000&quot; style=&quot;background-color: rgb(255 , 255 , 255)&quot;&gt;&amp;nbsp; len&amp;nbsp; &amp;nbsp; : 10&lt;/font&gt;" style="shape=partialRectangle;html=1;whiteSpace=wrap;connectable=0;overflow=hidden;fillColor=none;top=0;left=0;bottom=0;right=0;align=left;" parent="35" vertex="1">
                    <mxGeometry width="80" height="24" as="geometry"/>
                </mxCell>
                <mxCell id="37" value="" style="shape=partialRectangle;html=1;whiteSpace=wrap;collapsible=0;dropTarget=0;pointerEvents=0;fillColor=none;top=0;left=0;bottom=0;right=0;points=[[0,0.5],[1,0.5]];portConstraint=eastwest;" parent="32" vertex="1">
                    <mxGeometry y="47" width="80" height="23" as="geometry"/>
                </mxCell>
                <mxCell id="38" value="&lt;font color=&quot;#000000&quot;&gt;&amp;nbsp; len&amp;nbsp; &amp;nbsp; : 10&lt;/font&gt;" style="shape=partialRectangle;html=1;whiteSpace=wrap;connectable=0;overflow=hidden;fillColor=none;top=0;left=0;bottom=0;right=0;align=left;" parent="37" vertex="1">
                    <mxGeometry width="80" height="23" as="geometry"/>
                </mxCell>
                <mxCell id="39" value="s1" style="text;html=1;resizable=0;autosize=1;align=center;verticalAlign=middle;points=[];fillColor=none;strokeColor=none;rounded=0;fontColor=#0A0A0A;strokeWidth=1;fontSize=21;" parent="1" vertex="1">
                    <mxGeometry x="125" y="490" width="40" height="30" as="geometry"/>
                </mxCell>
                <mxCell id="40" value="" style="endArrow=none;dashed=1;html=1;fontSize=21;fontColor=#0A0A0A;strokeColor=#0C0842;" parent="1" edge="1">
                    <mxGeometry width="50" height="50" relative="1" as="geometry">
                        <mxPoint x="140" y="550" as="sourcePoint"/>
                        <mxPoint x="630" y="550" as="targetPoint"/>
                    </mxGeometry>
                </mxCell>
                <mxCell id="41" value="" style="endArrow=none;dashed=1;html=1;strokeColor=#0C0842;fontSize=21;fontColor=#0A0A0A;" parent="1" edge="1">
                    <mxGeometry width="50" height="50" relative="1" as="geometry">
                        <mxPoint x="140" y="579" as="sourcePoint"/>
                        <mxPoint x="140" y="550" as="targetPoint"/>
                    </mxGeometry>
                </mxCell>
                <mxCell id="42" value="" style="endArrow=none;dashed=1;html=1;strokeColor=#0C0842;fontSize=21;fontColor=#0A0A0A;exitX=0.947;exitY=0.025;exitDx=0;exitDy=0;exitPerimeter=0;" parent="1" source="10" edge="1">
                    <mxGeometry width="50" height="50" relative="1" as="geometry">
                        <mxPoint x="150" y="589" as="sourcePoint"/>
                        <mxPoint x="630" y="550" as="targetPoint"/>
                    </mxGeometry>
                </mxCell>
                <mxCell id="43" value="" style="endArrow=classic;html=1;strokeColor=#0C0842;fontSize=21;fontColor=#0A0A0A;" parent="1" edge="1">
                    <mxGeometry width="50" height="50" relative="1" as="geometry">
                        <mxPoint x="250" y="480" as="sourcePoint"/>
                        <mxPoint x="400" y="550" as="targetPoint"/>
                        <Array as="points">
                            <mxPoint x="400" y="480"/>
                        </Array>
                    </mxGeometry>
                </mxCell>
                <mxCell id="44" value="" style="shape=table;html=1;whiteSpace=wrap;startSize=0;container=1;collapsible=0;childLayout=tableLayout;strokeColor=#0D0D0D;fontColor=#0A0A0A;fillColor=#F2F2F2;" parent="1" vertex="1">
                    <mxGeometry x="160" y="714" width="80" height="70" as="geometry"/>
                </mxCell>
                <mxCell id="45" value="" style="shape=partialRectangle;html=1;whiteSpace=wrap;collapsible=0;dropTarget=0;pointerEvents=0;fillColor=none;top=0;left=0;bottom=0;right=0;points=[[0,0.5],[1,0.5]];portConstraint=eastwest;" parent="44" vertex="1">
                    <mxGeometry width="80" height="23" as="geometry"/>
                </mxCell>
                <object label="&lt;font color=&quot;#0d0d0d&quot;&gt;&amp;nbsp; data&lt;/font&gt;" id="46">
                    <mxCell style="shape=partialRectangle;html=1;whiteSpace=wrap;connectable=0;overflow=hidden;fillColor=none;top=0;left=0;bottom=0;right=0;align=left;" parent="45" vertex="1">
                        <mxGeometry width="80" height="23" as="geometry"/>
                    </mxCell>
                </object>
                <mxCell id="47" value="" style="shape=partialRectangle;html=1;whiteSpace=wrap;collapsible=0;dropTarget=0;pointerEvents=0;fillColor=none;top=0;left=0;bottom=0;right=0;points=[[0,0.5],[1,0.5]];portConstraint=eastwest;" parent="44" vertex="1">
                    <mxGeometry y="23" width="80" height="24" as="geometry"/>
                </mxCell>
                <mxCell id="48" value="&lt;font color=&quot;#000000&quot; style=&quot;background-color: rgb(255 , 255 , 255)&quot;&gt;&amp;nbsp; len&amp;nbsp; &amp;nbsp; : 5&lt;/font&gt;" style="shape=partialRectangle;html=1;whiteSpace=wrap;connectable=0;overflow=hidden;fillColor=none;top=0;left=0;bottom=0;right=0;align=left;" parent="47" vertex="1">
                    <mxGeometry width="80" height="24" as="geometry"/>
                </mxCell>
                <mxCell id="49" value="" style="shape=partialRectangle;html=1;whiteSpace=wrap;collapsible=0;dropTarget=0;pointerEvents=0;fillColor=none;top=0;left=0;bottom=0;right=0;points=[[0,0.5],[1,0.5]];portConstraint=eastwest;" parent="44" vertex="1">
                    <mxGeometry y="47" width="80" height="23" as="geometry"/>
                </mxCell>
                <mxCell id="50" value="&lt;font color=&quot;#000000&quot;&gt;&amp;nbsp; len&amp;nbsp; &amp;nbsp; : 7&lt;/font&gt;" style="shape=partialRectangle;html=1;whiteSpace=wrap;connectable=0;overflow=hidden;fillColor=none;top=0;left=0;bottom=0;right=0;align=left;" parent="49" vertex="1">
                    <mxGeometry width="80" height="23" as="geometry"/>
                </mxCell>
                <mxCell id="51" value="" style="shape=table;html=1;whiteSpace=wrap;startSize=0;container=1;collapsible=0;childLayout=tableLayout;strokeColor=#0D0D0D;fontColor=#0A0A0A;fillColor=#F2F2F2;" parent="1" vertex="1">
                    <mxGeometry x="320" y="714" width="80" height="70" as="geometry"/>
                </mxCell>
                <mxCell id="52" value="" style="shape=partialRectangle;html=1;whiteSpace=wrap;collapsible=0;dropTarget=0;pointerEvents=0;fillColor=none;top=0;left=0;bottom=0;right=0;points=[[0,0.5],[1,0.5]];portConstraint=eastwest;" parent="51" vertex="1">
                    <mxGeometry width="80" height="23" as="geometry"/>
                </mxCell>
                <object label="&lt;font color=&quot;#0d0d0d&quot;&gt;&amp;nbsp; data&lt;/font&gt;" id="53">
                    <mxCell style="shape=partialRectangle;html=1;whiteSpace=wrap;connectable=0;overflow=hidden;fillColor=none;top=0;left=0;bottom=0;right=0;align=left;" parent="52" vertex="1">
                        <mxGeometry width="80" height="23" as="geometry"/>
                    </mxCell>
                </object>
                <mxCell id="54" value="" style="shape=partialRectangle;html=1;whiteSpace=wrap;collapsible=0;dropTarget=0;pointerEvents=0;fillColor=none;top=0;left=0;bottom=0;right=0;points=[[0,0.5],[1,0.5]];portConstraint=eastwest;" parent="51" vertex="1">
                    <mxGeometry y="23" width="80" height="24" as="geometry"/>
                </mxCell>
                <mxCell id="55" value="&lt;font color=&quot;#000000&quot; style=&quot;background-color: rgb(255 , 255 , 255)&quot;&gt;&amp;nbsp; len&amp;nbsp; &amp;nbsp; : 2&lt;/font&gt;" style="shape=partialRectangle;html=1;whiteSpace=wrap;connectable=0;overflow=hidden;fillColor=none;top=0;left=0;bottom=0;right=0;align=left;" parent="54" vertex="1">
                    <mxGeometry width="80" height="24" as="geometry"/>
                </mxCell>
                <mxCell id="56" value="" style="shape=partialRectangle;html=1;whiteSpace=wrap;collapsible=0;dropTarget=0;pointerEvents=0;fillColor=none;top=0;left=0;bottom=0;right=0;points=[[0,0.5],[1,0.5]];portConstraint=eastwest;" parent="51" vertex="1">
                    <mxGeometry y="47" width="80" height="23" as="geometry"/>
                </mxCell>
                <mxCell id="57" value="&lt;font color=&quot;#000000&quot;&gt;&amp;nbsp; len&amp;nbsp; &amp;nbsp; : 5&lt;/font&gt;" style="shape=partialRectangle;html=1;whiteSpace=wrap;connectable=0;overflow=hidden;fillColor=none;top=0;left=0;bottom=0;right=0;align=left;" parent="56" vertex="1">
                    <mxGeometry width="80" height="23" as="geometry"/>
                </mxCell>
                <mxCell id="58" value="" style="shape=table;html=1;whiteSpace=wrap;startSize=0;container=1;collapsible=0;childLayout=tableLayout;strokeColor=#0D0D0D;fontColor=#0A0A0A;fillColor=#F2F2F2;" parent="1" vertex="1">
                    <mxGeometry x="480" y="714" width="80" height="70" as="geometry"/>
                </mxCell>
                <mxCell id="59" value="" style="shape=partialRectangle;html=1;whiteSpace=wrap;collapsible=0;dropTarget=0;pointerEvents=0;fillColor=none;top=0;left=0;bottom=0;right=0;points=[[0,0.5],[1,0.5]];portConstraint=eastwest;" parent="58" vertex="1">
                    <mxGeometry width="80" height="23" as="geometry"/>
                </mxCell>
                <object label="&lt;font color=&quot;#0d0d0d&quot;&gt;&amp;nbsp; data&lt;/font&gt;" id="60">
                    <mxCell style="shape=partialRectangle;html=1;whiteSpace=wrap;connectable=0;overflow=hidden;fillColor=none;top=0;left=0;bottom=0;right=0;align=left;" parent="59" vertex="1">
                        <mxGeometry width="80" height="23" as="geometry"/>
                    </mxCell>
                </object>
                <mxCell id="61" value="" style="shape=partialRectangle;html=1;whiteSpace=wrap;collapsible=0;dropTarget=0;pointerEvents=0;fillColor=none;top=0;left=0;bottom=0;right=0;points=[[0,0.5],[1,0.5]];portConstraint=eastwest;" parent="58" vertex="1">
                    <mxGeometry y="23" width="80" height="24" as="geometry"/>
                </mxCell>
                <mxCell id="62" value="&lt;font color=&quot;#000000&quot; style=&quot;background-color: rgb(255 , 255 , 255)&quot;&gt;&amp;nbsp; len&amp;nbsp; &amp;nbsp; : 6&lt;/font&gt;" style="shape=partialRectangle;html=1;whiteSpace=wrap;connectable=0;overflow=hidden;fillColor=none;top=0;left=0;bottom=0;right=0;align=left;" parent="61" vertex="1">
                    <mxGeometry width="80" height="24" as="geometry"/>
                </mxCell>
                <mxCell id="63" value="" style="shape=partialRectangle;html=1;whiteSpace=wrap;collapsible=0;dropTarget=0;pointerEvents=0;fillColor=none;top=0;left=0;bottom=0;right=0;points=[[0,0.5],[1,0.5]];portConstraint=eastwest;" parent="58" vertex="1">
                    <mxGeometry y="47" width="80" height="23" as="geometry"/>
                </mxCell>
                <mxCell id="64" value="&lt;font color=&quot;#000000&quot;&gt;&amp;nbsp; len&amp;nbsp; &amp;nbsp; : 6&lt;/font&gt;" style="shape=partialRectangle;html=1;whiteSpace=wrap;connectable=0;overflow=hidden;fillColor=none;top=0;left=0;bottom=0;right=0;align=left;" parent="63" vertex="1">
                    <mxGeometry width="80" height="23" as="geometry"/>
                </mxCell>
                <mxCell id="65" value="s2" style="text;html=1;resizable=0;autosize=1;align=center;verticalAlign=middle;points=[];fillColor=none;strokeColor=none;rounded=0;fontColor=#0A0A0A;strokeWidth=1;fontSize=21;" parent="1" vertex="1">
                    <mxGeometry x="120" y="734" width="40" height="30" as="geometry"/>
                </mxCell>
                <mxCell id="66" value="s3" style="text;html=1;resizable=0;autosize=1;align=center;verticalAlign=middle;points=[];fillColor=none;strokeColor=none;rounded=0;fontColor=#0A0A0A;strokeWidth=1;fontSize=21;" parent="1" vertex="1">
                    <mxGeometry x="280" y="734" width="40" height="30" as="geometry"/>
                </mxCell>
                <mxCell id="67" value="s4" style="text;html=1;resizable=0;autosize=1;align=center;verticalAlign=middle;points=[];fillColor=none;strokeColor=none;rounded=0;fontColor=#0A0A0A;strokeWidth=1;fontSize=21;" parent="1" vertex="1">
                    <mxGeometry x="440" y="734" width="40" height="30" as="geometry"/>
                </mxCell>
                <mxCell id="68" value="" style="shape=table;html=1;whiteSpace=wrap;startSize=0;container=1;collapsible=0;childLayout=tableLayout;fillColor=#F7F7F7;fontColor=#050505;strokeColor=#9C9C9C;" parent="1" vertex="1">
                    <mxGeometry x="110" y="620" width="550" height="20" as="geometry"/>
                </mxCell>
                <mxCell id="69" value="" style="shape=partialRectangle;html=1;whiteSpace=wrap;collapsible=0;dropTarget=0;pointerEvents=0;fillColor=none;top=0;left=0;bottom=0;right=0;points=[[0,0.5],[1,0.5]];portConstraint=eastwest;fontColor=#050505;strokeColor=#9C9C9C;" parent="68" vertex="1">
                    <mxGeometry width="550" height="20" as="geometry"/>
                </mxCell>
                <mxCell id="70" value="0" style="shape=partialRectangle;html=1;whiteSpace=wrap;connectable=0;overflow=hidden;fillColor=none;top=0;left=0;bottom=0;right=0;fontColor=#050505;strokeColor=#9C9C9C;" parent="69" vertex="1">
                    <mxGeometry width="55" height="20" as="geometry"/>
                </mxCell>
                <mxCell id="71" value="1" style="shape=partialRectangle;html=1;whiteSpace=wrap;connectable=0;overflow=hidden;fillColor=none;top=0;left=0;bottom=0;right=0;fontColor=#050505;strokeColor=#9C9C9C;" parent="69" vertex="1">
                    <mxGeometry x="55" width="55" height="20" as="geometry"/>
                </mxCell>
                <mxCell id="72" value="2" style="shape=partialRectangle;html=1;whiteSpace=wrap;connectable=0;overflow=hidden;fillColor=none;top=0;left=0;bottom=0;right=0;fontColor=#050505;strokeColor=#9C9C9C;" parent="69" vertex="1">
                    <mxGeometry x="110" width="55" height="20" as="geometry"/>
                </mxCell>
                <mxCell id="73" value="3" style="shape=partialRectangle;html=1;whiteSpace=wrap;connectable=0;overflow=hidden;fillColor=none;top=0;left=0;bottom=0;right=0;fontColor=#050505;strokeColor=#9C9C9C;" parent="69" vertex="1">
                    <mxGeometry x="165" width="55" height="20" as="geometry"/>
                </mxCell>
                <mxCell id="74" value="4" style="shape=partialRectangle;html=1;whiteSpace=wrap;connectable=0;overflow=hidden;fillColor=none;top=0;left=0;bottom=0;right=0;fontColor=#050505;strokeColor=#9C9C9C;" parent="69" vertex="1">
                    <mxGeometry x="220" width="55" height="20" as="geometry"/>
                </mxCell>
                <mxCell id="75" value="5" style="shape=partialRectangle;html=1;whiteSpace=wrap;connectable=0;overflow=hidden;fillColor=none;top=0;left=0;bottom=0;right=0;fontColor=#050505;strokeColor=#9C9C9C;" parent="69" vertex="1">
                    <mxGeometry x="275" width="55" height="20" as="geometry"/>
                </mxCell>
                <mxCell id="76" value="6" style="shape=partialRectangle;html=1;whiteSpace=wrap;connectable=0;overflow=hidden;fillColor=none;top=0;left=0;bottom=0;right=0;fontColor=#050505;strokeColor=#9C9C9C;" parent="69" vertex="1">
                    <mxGeometry x="330" width="55" height="20" as="geometry"/>
                </mxCell>
                <mxCell id="77" value="7" style="shape=partialRectangle;html=1;whiteSpace=wrap;connectable=0;overflow=hidden;fillColor=none;top=0;left=0;bottom=0;right=0;fontColor=#050505;strokeColor=#9C9C9C;" parent="69" vertex="1">
                    <mxGeometry x="385" width="55" height="20" as="geometry"/>
                </mxCell>
                <mxCell id="78" value="8" style="shape=partialRectangle;html=1;whiteSpace=wrap;connectable=0;overflow=hidden;fillColor=none;top=0;left=0;bottom=0;right=0;fontColor=#050505;strokeColor=#9C9C9C;" parent="69" vertex="1">
                    <mxGeometry x="440" width="55" height="20" as="geometry"/>
                </mxCell>
                <mxCell id="79" value="9" style="shape=partialRectangle;html=1;whiteSpace=wrap;connectable=0;overflow=hidden;fillColor=none;top=0;left=0;bottom=0;right=0;fontColor=#050505;strokeColor=#9C9C9C;" parent="69" vertex="1">
                    <mxGeometry x="495" width="55" height="20" as="geometry"/>
                </mxCell>
                <mxCell id="84" value="" style="endArrow=none;dashed=1;html=1;strokeColor=#0C0842;fontSize=21;fontColor=#050505;exitX=0.449;exitY=1;exitDx=0;exitDy=0;exitPerimeter=0;entryX=0.953;entryY=1.15;entryDx=0;entryDy=0;entryPerimeter=0;" parent="68" source="69" target="69" edge="1">
                    <mxGeometry width="50" height="50" relative="1" as="geometry">
                        <mxPoint x="280" y="10" as="sourcePoint"/>
                        <mxPoint x="410" y="60" as="targetPoint"/>
                        <Array as="points">
                            <mxPoint x="247" y="60"/>
                            <mxPoint x="524" y="60"/>
                        </Array>
                    </mxGeometry>
                </mxCell>
                <mxCell id="80" value="" style="endArrow=none;dashed=1;html=1;strokeColor=#0C0842;fontSize=21;fontColor=#050505;exitX=0.742;exitY=1.25;exitDx=0;exitDy=0;exitPerimeter=0;" parent="1" source="69" edge="1">
                    <mxGeometry width="50" height="50" relative="1" as="geometry">
                        <mxPoint x="520" y="680" as="sourcePoint"/>
                        <mxPoint x="300" y="640" as="targetPoint"/>
                        <Array as="points">
                            <mxPoint x="520" y="670"/>
                            <mxPoint x="300" y="670"/>
                        </Array>
                    </mxGeometry>
                </mxCell>
                <mxCell id="81" value="" style="endArrow=classic;html=1;strokeColor=#0C0842;fontSize=21;fontColor=#050505;exitX=1;exitY=0.5;exitDx=0;exitDy=0;" parent="1" source="45" edge="1">
                    <mxGeometry width="50" height="50" relative="1" as="geometry">
                        <mxPoint x="200" y="690" as="sourcePoint"/>
                        <mxPoint x="420" y="670" as="targetPoint"/>
                        <Array as="points">
                            <mxPoint x="280" y="690"/>
                            <mxPoint x="420" y="690"/>
                        </Array>
                    </mxGeometry>
                </mxCell>
                <mxCell id="82" value="" style="endArrow=none;dashed=1;html=1;strokeColor=#0C0842;fontSize=21;fontColor=#050505;entryX=0.655;entryY=1;entryDx=0;entryDy=0;entryPerimeter=0;" parent="1" target="69" edge="1">
                    <mxGeometry width="50" height="50" relative="1" as="geometry">
                        <mxPoint x="410" y="640" as="sourcePoint"/>
                        <mxPoint x="470" y="660" as="targetPoint"/>
                        <Array as="points">
                            <mxPoint x="410" y="660"/>
                            <mxPoint x="470" y="660"/>
                        </Array>
                    </mxGeometry>
                </mxCell>
                <mxCell id="83" value="" style="endArrow=classic;html=1;strokeColor=#0C0842;fontSize=21;fontColor=#050505;" parent="1" edge="1">
                    <mxGeometry width="50" height="50" relative="1" as="geometry">
                        <mxPoint x="400" y="730" as="sourcePoint"/>
                        <mxPoint x="440" y="660" as="targetPoint"/>
                        <Array as="points">
                            <mxPoint x="440" y="730"/>
                        </Array>
                    </mxGeometry>
                </mxCell>
                <mxCell id="85" value="" style="endArrow=classic;html=1;strokeColor=#0C0842;fontSize=21;fontColor=#050505;" parent="1" edge="1">
                    <mxGeometry width="50" height="50" relative="1" as="geometry">
                        <mxPoint x="560" y="730" as="sourcePoint"/>
                        <mxPoint x="530" y="680" as="targetPoint"/>
                        <Array as="points">
                            <mxPoint x="600" y="730"/>
                        </Array>
                    </mxGeometry>
                </mxCell>
            </root>
        </mxGraphModel>
    </diagram>
</mxfile>